<svg id="Graphic_Elements" data-name="Graphic Elements" xmlns="http://www.w3.org/2000/svg" viewBox="0 0 1200 1200"><defs><style>.cls-1{fill:none;}</style></defs><path class="cls-1" d="M600,63.75C303.84,63.75,63.75,303.84,63.75,600S303.84,1136.25,600,1136.25c-148.08,0-268.12-148.08-268.12-261.25,0-148.09,120-275,268.12-275S875,451.92,875,325C875,176.92,748.09,63.75,600,63.75Zm0,354.75A93.5,93.5,0,1,1,693.5,325,93.5,93.5,0,0,1,600,418.5Z"/><circle class="cls-1" cx="600" cy="875" r="89.38"/><circle cx="600" cy="325" r="93.5"/><path d="M600,50C296.24,50,50,296.24,50,600s246.24,550,550,550,550-246.24,550-550S903.76,50,600,50Zm0,914.38A89.38,89.38,0,1,1,689.38,875,89.38,89.38,0,0,1,600,964.38ZM600,600c-148.08,0-268.12,126.91-268.12,275,0,113.17,120,261.25,268.12,261.25C303.84,1136.25,63.75,896.16,63.75,600S303.84,63.75,600,63.75c148.09,0,275,113.17,275,261.25C875,451.92,748.09,600,600,600Z"/></svg>